<svg xmlns="http://www.w3.org/2000/svg" viewBox="0 0 1440 1024" role="img" aria-labelledby="title desc">
  <title id="title">Gallery App visual design thumbnail</title>
  <desc id="desc">A clean gallery app thumbnail with photo grids, albums, and a mobile mockup.</desc>
  <defs>
    <linearGradient id="bg" x1="0" y1="0" x2="1" y2="1">
      <stop offset="0" stop-color="#f4fbff"/>
      <stop offset="0.52" stop-color="#fff7f0"/>
      <stop offset="1" stop-color="#fce5ec"/>
    </linearGradient>
    <linearGradient id="accent" x1="0" y1="0" x2="1" y2="1">
      <stop offset="0" stop-color="#5aa9ff"/>
      <stop offset="1" stop-color="#f8798f"/>
    </linearGradient>
    <filter id="shadow" x="-20%" y="-20%" width="140%" height="140%">
      <feDropShadow dx="0" dy="28" stdDeviation="30" flood-color="#1e2430" flood-opacity="0.16"/>
    </filter>
  </defs>
  <rect width="1440" height="1024" fill="url(#bg)"/>
  <circle cx="196" cy="190" r="92" fill="#5aa9ff" opacity="0.13"/>
  <circle cx="1238" cy="824" r="126" fill="#f8798f" opacity="0.14"/>
  <text x="132" y="185" fill="#30343b" font-family="Montserrat, Arial, sans-serif" font-size="58" font-weight="700">Gallery App</text>
  <text x="132" y="244" fill="#69706d" font-family="Montserrat, Arial, sans-serif" font-size="28">Browse, organize and revisit favorite photos</text>
  <g filter="url(#shadow)">
    <rect x="432" y="112" width="576" height="800" rx="70" fill="#ffffff"/>
    <rect x="486" y="184" width="468" height="672" rx="42" fill="#f8fbff"/>
    <text x="536" y="276" fill="#30343b" font-family="Montserrat, Arial, sans-serif" font-size="38" font-weight="700">Moments</text>
    <circle cx="888" cy="254" r="31" fill="url(#accent)"/>
    <rect x="536" y="322" width="184" height="178" rx="30" fill="#dbeeff"/>
    <circle cx="590" cy="374" r="24" fill="#ffbf69"/>
    <path d="M552 470l58-72 48 54 32-34 48 52z" fill="#5aa9ff"/>
    <rect x="750" y="322" width="154" height="178" rx="30" fill="#fff0f4"/>
    <circle cx="804" cy="384" r="28" fill="#f8798f"/>
    <path d="M766 470l52-68 34 40 24-28 44 56z" fill="#ffc9d4"/>
    <rect x="536" y="532" width="154" height="178" rx="30" fill="#f1fbf8"/>
    <circle cx="588" cy="594" r="25" fill="#26a69a"/>
    <path d="M552 680l44-58 38 44 26-30 46 44z" fill="#9ad7ce"/>
    <rect x="720" y="532" width="184" height="178" rx="30" fill="#fff7e8"/>
    <circle cx="780" cy="592" r="24" fill="#ffbf69"/>
    <path d="M742 680l58-76 48 56 30-34 50 54z" fill="#f8798f"/>
    <rect x="536" y="752" width="368" height="50" rx="25" fill="#30343b"/>
    <circle cx="628" cy="777" r="13" fill="#ffffff"/>
    <circle cx="720" cy="777" r="13" fill="#f8798f"/>
    <circle cx="812" cy="777" r="13" fill="#ffffff"/>
  </g>
  <g filter="url(#shadow)">
    <rect x="120" y="620" width="286" height="148" rx="32" fill="#ffffff"/>
    <rect x="154" y="654" width="88" height="80" rx="20" fill="#dbeeff"/>
    <rect x="258" y="654" width="112" height="80" rx="20" fill="#fff0f4"/>
    <text x="154" y="812" fill="#30343b" font-family="Montserrat, Arial, sans-serif" font-size="25" font-weight="700">Albums</text>
  </g>
</svg>
