<svg xmlns="http://www.w3.org/2000/svg" viewBox="0 0 1440 1024" role="img" aria-labelledby="title desc">
  <title id="title">Notepad App visual design thumbnail</title>
  <desc id="desc">A warm minimal layout with a phone mockup, note cards, reminders, and voice note controls.</desc>
  <defs>
    <linearGradient id="bg" x1="0" y1="0" x2="1" y2="1">
      <stop offset="0" stop-color="#fff7f0"/>
      <stop offset="0.55" stop-color="#eef8f5"/>
      <stop offset="1" stop-color="#fbe1e7"/>
    </linearGradient>
    <linearGradient id="accent" x1="0" y1="0" x2="1" y2="1">
      <stop offset="0" stop-color="#f8798f"/>
      <stop offset="1" stop-color="#26a69a"/>
    </linearGradient>
    <filter id="shadow" x="-20%" y="-20%" width="140%" height="140%">
      <feDropShadow dx="0" dy="28" stdDeviation="30" flood-color="#2a171c" flood-opacity="0.16"/>
    </filter>
  </defs>
  <rect width="1440" height="1024" fill="url(#bg)"/>
  <circle cx="171" cy="169" r="88" fill="#f8798f" opacity="0.15"/>
  <circle cx="1260" cy="854" r="120" fill="#26a69a" opacity="0.14"/>
  <g filter="url(#shadow)">
    <rect x="382" y="114" width="676" height="796" rx="70" fill="#ffffff"/>
    <rect x="438" y="186" width="564" height="684" rx="44" fill="#fffaf7"/>
    <rect x="496" y="252" width="232" height="24" rx="12" fill="#2f2f2f"/>
    <rect x="496" y="306" width="390" height="18" rx="9" fill="#b9c8c4"/>
    <rect x="496" y="378" width="448" height="136" rx="28" fill="#ffffff" stroke="#f1d8dd"/>
    <rect x="534" y="414" width="252" height="18" rx="9" fill="#333333"/>
    <rect x="534" y="456" width="324" height="14" rx="7" fill="#b9c8c4"/>
    <rect x="534" y="486" width="210" height="14" rx="7" fill="#d3dedb"/>
    <circle cx="902" cy="446" r="38" fill="#fff0f3"/>
    <path d="M902 425v42M881 446h42" stroke="#f8798f" stroke-width="12" stroke-linecap="round"/>
    <rect x="496" y="548" width="448" height="94" rx="28" fill="#f1fbf8"/>
    <circle cx="548" cy="595" r="22" fill="#26a69a"/>
    <rect x="588" y="574" width="184" height="16" rx="8" fill="#333333"/>
    <rect x="588" y="606" width="254" height="13" rx="6.5" fill="#9fb1ad"/>
    <rect x="496" y="674" width="448" height="94" rx="28" fill="#fff1f4"/>
    <circle cx="548" cy="721" r="22" fill="#f8798f"/>
    <rect x="588" y="700" width="210" height="16" rx="8" fill="#333333"/>
    <rect x="588" y="732" width="286" height="13" rx="6.5" fill="#b99ca4"/>
  </g>
  <g>
    <rect x="130" y="620" width="282" height="150" rx="32" fill="#ffffff" filter="url(#shadow)"/>
    <path d="M220 695c30-42 69-42 98 0" fill="none" stroke="#f8798f" stroke-width="20" stroke-linecap="round"/>
    <circle cx="270" cy="696" r="19" fill="#26a69a"/>
    <rect x="956" y="166" width="304" height="146" rx="32" fill="#ffffff" filter="url(#shadow)"/>
    <rect x="1006" y="217" width="170" height="18" rx="9" fill="#333333"/>
    <rect x="1006" y="253" width="104" height="14" rx="7" fill="#b9c8c4"/>
    <circle cx="1202" cy="239" r="30" fill="url(#accent)"/>
  </g>
  <text x="132" y="185" fill="#333333" font-family="Montserrat, Arial, sans-serif" font-size="58" font-weight="700">Notepad App</text>
  <text x="132" y="244" fill="#69706d" font-family="Montserrat, Arial, sans-serif" font-size="28">Voice notes, reminders and smart organization</text>
</svg>
