<svg xmlns="http://www.w3.org/2000/svg" viewBox="0 0 1440 1800" role="img" aria-labelledby="title desc">
  <title id="title">Notepad App screenshot</title>
  <desc id="desc">A mobile app screenshot showing note cards, voice note controls, reminder chips, and organized folders.</desc>
  <defs>
    <linearGradient id="screenBg" x1="0" y1="0" x2="0" y2="1">
      <stop offset="0" stop-color="#fffaf7"/>
      <stop offset="1" stop-color="#eef8f5"/>
    </linearGradient>
    <filter id="shadow" x="-20%" y="-20%" width="140%" height="140%">
      <feDropShadow dx="0" dy="32" stdDeviation="30" flood-color="#2a171c" flood-opacity="0.14"/>
    </filter>
  </defs>
  <rect width="1440" height="1800" fill="#f7f3ef"/>
  <rect x="355" y="100" width="730" height="1600" rx="98" fill="#211f22" filter="url(#shadow)"/>
  <rect x="397" y="154" width="646" height="1492" rx="72" fill="url(#screenBg)"/>
  <rect x="620" y="196" width="200" height="20" rx="10" fill="#211f22" opacity="0.55"/>
  <text x="461" y="315" fill="#333333" font-family="Montserrat, Arial, sans-serif" font-size="50" font-weight="700">My Notes</text>
  <circle cx="966" cy="295" r="38" fill="#f8798f"/>
  <path d="M966 276v38M947 295h38" stroke="#ffffff" stroke-width="10" stroke-linecap="round"/>
  <rect x="461" y="372" width="518" height="72" rx="36" fill="#ffffff" stroke="#eadde0"/>
  <text x="506" y="419" fill="#9a9a9a" font-family="Montserrat, Arial, sans-serif" font-size="24">Search notes</text>
  <rect x="461" y="504" width="248" height="96" rx="32" fill="#fff1f4"/>
  <text x="503" y="562" fill="#333333" font-family="Montserrat, Arial, sans-serif" font-size="27" font-weight="700">All Notes</text>
  <rect x="733" y="504" width="246" height="96" rx="32" fill="#f1fbf8"/>
  <text x="775" y="562" fill="#333333" font-family="Montserrat, Arial, sans-serif" font-size="27" font-weight="700">Reminders</text>
  <rect x="461" y="664" width="518" height="226" rx="38" fill="#ffffff" stroke="#eedfe2"/>
  <text x="511" y="728" fill="#333333" font-family="Montserrat, Arial, sans-serif" font-size="31" font-weight="700">Project ideas</text>
  <rect x="511" y="772" width="336" height="20" rx="10" fill="#b7c6c2"/>
  <rect x="511" y="812" width="256" height="20" rx="10" fill="#d6e1dd"/>
  <rect x="511" y="846" width="122" height="34" rx="17" fill="#fff1f4"/>
  <text x="535" y="870" fill="#f8798f" font-family="Montserrat, Arial, sans-serif" font-size="17" font-weight="700">Today</text>
  <rect x="461" y="930" width="518" height="226" rx="38" fill="#ffffff" stroke="#dcebe7"/>
  <text x="511" y="994" fill="#333333" font-family="Montserrat, Arial, sans-serif" font-size="31" font-weight="700">Voice memo</text>
  <path d="M526 1080v-42M584 1104v-90M642 1124v-130M700 1104v-90M758 1080v-42" fill="none" stroke="#26a69a" stroke-width="28" stroke-linecap="round"/>
  <circle cx="895" cy="1062" r="48" fill="#26a69a"/>
  <path d="M881 1041l42 21-42 21z" fill="#ffffff"/>
  <rect x="461" y="1196" width="518" height="226" rx="38" fill="#ffffff" stroke="#eedfe2"/>
  <text x="511" y="1260" fill="#333333" font-family="Montserrat, Arial, sans-serif" font-size="31" font-weight="700">Meeting notes</text>
  <rect x="511" y="1304" width="346" height="20" rx="10" fill="#b7c6c2"/>
  <rect x="511" y="1344" width="286" height="20" rx="10" fill="#d6e1dd"/>
  <rect x="511" y="1378" width="164" height="34" rx="17" fill="#f1fbf8"/>
  <text x="535" y="1402" fill="#26a69a" font-family="Montserrat, Arial, sans-serif" font-size="17" font-weight="700">Work</text>
  <rect x="461" y="1486" width="518" height="82" rx="41" fill="#333333"/>
  <circle cx="590" cy="1527" r="18" fill="#ffffff"/>
  <circle cx="720" cy="1527" r="18" fill="#f8798f"/>
  <circle cx="850" cy="1527" r="18" fill="#ffffff"/>
</svg>
